<svg width="55.000000" height="72.000000" viewBox="0 0 55 72" fill="none" xmlns="http://www.w3.org/2000/svg" xmlns:xlink="http://www.w3.org/1999/xlink">
	<desc>
			Created with Pixso.
	</desc>
	<defs/>
	<path id="Vector" d="M34.78 1.09C34.22 1.7 32.91 3.02 31.86 4.02C28.36 7.35 27.65 8.54 27.55 11.25C27.48 13.46 27.99 15.14 29.3 17.04C29.65 17.55 29.94 17.94 29.94 17.89C29.94 17.85 29.73 17.38 29.46 16.85C28.45 14.81 28.15 12.33 28.7 10.57C29.22 8.92 29.98 7.93 32.55 5.54C33.09 5.04 33.75 4.35 34.03 4.02L34.55 3.42L34.48 5.96C34.44 7.65 34.36 8.81 34.22 9.42C33.78 11.47 32.91 13.1 31.33 14.88C30.18 16.18 29.86 16.92 30.17 17.53C30.22 17.63 30.3 18.1 30.35 18.53L30.43 19.33L29.74 19.79C27.41 21.35 25.77 23.59 25.11 26.14C24.92 26.82 24.85 27.47 24.85 28.53C24.84 30.77 25.25 32.64 26.29 35L26.83 36.23L26.64 37.2C26.45 38.19 26.38 41.11 26.55 41.87C26.61 42.18 26.69 42.24 26.99 42.24L27.35 42.24L27.43 40.67C27.75 35.09 29.58 31.85 33.89 29.27C37.2 27.28 38.18 26.16 40.39 21.84C42.12 18.41 42.68 17.5 44.02 15.77L44.78 14.78L43.71 15.25C41.97 16 39.47 16.75 36.46 17.43C33.56 18.07 32.25 18.45 31.25 18.96C30.93 19.12 30.64 19.25 30.61 19.25C30.57 19.25 30.56 18.76 30.59 18.16C30.65 16.86 30.67 16.83 32.54 14.87C33.55 13.81 33.97 13.25 34.32 12.56C35.09 11.02 35.15 10.57 35.07 7.6C34.98 4.81 35.13 2.99 35.61 0.97C35.73 0.44 35.83 0.01 35.82 0C35.8 -0.02 35.33 0.48 34.78 1.09ZM40.34 20.11C37.92 24.6 36.23 26.5 32.36 29.14C31.6 29.66 30.7 30.31 30.38 30.58C29.18 31.57 27.82 33.54 27.3 35.01C27.18 35.36 27.05 35.6 27.01 35.54C26.82 35.24 26.3 32.76 26.18 31.61C25.78 27.79 27.19 24.44 30.16 22.2C31.86 20.9 33.4 20.3 36.52 19.73C37.84 19.49 39.95 18.87 40.86 18.47C41.06 18.39 41.23 18.33 41.26 18.34C41.27 18.35 40.86 19.15 40.34 20.11Z" fill="#151618" fill-opacity="1.000000" fill-rule="nonzero"/>
	<path id="Vector" d="M13.56 4.12C14.28 6.85 14.49 10.43 14.14 13.79C13.71 17.97 14.07 19.23 16.64 22.67C17.33 23.59 18.11 24.79 18.39 25.33C19.17 26.92 19.59 29.18 19.6 31.9L19.6 33.03L19.31 32.91C18.64 32.66 17.43 32.55 14.38 32.49C12.61 32.45 10.77 32.36 10.31 32.31C9.85 32.25 9.46 32.23 9.44 32.24C9.42 32.25 9.66 32.45 9.98 32.68C11.34 33.66 12.71 34.94 14.29 36.7C15.22 37.73 16.34 38.87 16.78 39.23C18.68 40.75 20.85 41.63 23.47 41.95C24.55 42.08 24.12 41.67 22.3 40.87C19.4 39.58 17.94 38.54 15.71 36.14C14.87 35.24 13.86 34.28 13.46 34L12.74 33.52L14.16 33.52C17.87 33.52 19.97 34.25 21.76 36.15C22.64 37.09 23.28 38.26 23.6 39.51C23.7 39.91 23.81 40.26 23.84 40.3C23.96 40.41 23.93 38.86 23.79 38.01C23.52 36.25 22.13 34.31 20.53 33.46L19.84 33.09L19.84 31.09C19.84 27.1 19.49 25.73 17.67 22.62C15.26 18.49 14.86 16.86 14.94 11.14C14.96 9.37 15 7.91 15.01 7.92C15.01 7.93 15.26 8.27 15.55 8.67C15.85 9.07 16.91 10.28 17.93 11.35C20.4 13.93 21.35 15.43 21.94 17.68C22.6 20.14 22.06 23.59 20.5 26.92C20.21 27.54 19.99 28.05 20.01 28.05C20.03 28.05 20.23 27.76 20.47 27.39C22.36 24.53 23.3 21.3 23.16 18.27C23.08 16.62 22.75 15.33 22.07 13.9C21.37 12.41 20.57 11.37 18.24 8.93C16.43 7.02 15.19 5.61 13.88 4.06L13.38 3.45L13.56 4.12Z" fill="#151618" fill-opacity="1.000000" fill-rule="nonzero"/>
	<path id="Vector" d="M35.17 33.89C32.42 34.49 30.55 36.95 30.54 39.97C30.54 40.57 30.51 40.62 30.16 40.74C29.53 40.96 29.99 41.07 31.94 41.15C34.72 41.27 36.42 40.95 37.87 40.01C38.27 39.75 39.27 38.94 40.1 38.21C41.79 36.73 42.66 36.1 44.09 35.34L45.04 34.84L43.88 34.75C43.26 34.72 42.13 34.56 41.38 34.43C40.63 34.29 39.45 34.08 38.75 33.96C37.28 33.69 36.21 33.66 35.17 33.89ZM39.16 35.4C39.75 35.55 40.67 35.71 41.18 35.74L42.12 35.83L40.8 36.89C38.8 38.51 37.47 39.24 35.77 39.68C34.9 39.91 31.01 40.5 30.92 40.42C30.81 40.31 31.16 39.18 31.59 38.3C32.33 36.77 33.71 35.67 35.46 35.22C36.36 34.99 37.76 35.07 39.16 35.4Z" fill="#151618" fill-opacity="1.000000" fill-rule="nonzero"/>
	<path id="Vector" d="M8.23 47.11C8.09 53.67 8.42 55.89 10.06 59.19C10.91 60.92 12.31 62.95 13.3 63.9C13.54 64.13 13.73 64.35 13.73 64.39C13.73 64.44 10.72 64.45 7.06 64.42C3.38 64.4 0.25 64.42 0.09 64.46C-0.05 64.5 -0.25 64.67 -0.32 64.83C-0.43 65.08 -0.42 65.17 -0.23 65.37C-0.02 65.62 0.12 65.62 27.06 65.62C45.5 65.62 54.2 65.58 54.37 65.5C54.69 65.33 54.69 64.69 54.37 64.52C54.22 64.45 51.72 64.4 47.11 64.4L40.08 64.4L40.82 63.51C42.92 61.01 44.29 58.26 45.18 54.76C45.44 53.8 45.46 53.39 45.5 48.51L45.56 43.3L26.94 43.3L8.32 43.3L8.23 47.11Z" fill="#151618" fill-opacity="1.000000" fill-rule="nonzero"/>
	<path id="Vector" d="M3.21 67.27C7.3 69.21 13.6 70.79 19.47 71.35C20.51 71.46 20.98 71.54 20.8 71.59C20.55 71.66 20.53 71.68 20.74 71.69C20.87 71.7 21.69 71.76 22.55 71.83C26.98 72.16 36.45 71.96 36.19 71.54C36.15 71.49 36.16 71.46 36.24 71.5C36.3 71.53 36.51 71.52 36.71 71.46C37.05 71.37 37.05 71.37 36.58 71.34C36.29 71.33 36.9 71.19 38.09 70.98C41.77 70.36 44.81 69.61 47.3 68.7C48.72 68.17 51.49 66.97 51.69 66.78C51.75 66.72 42.3 66.67 26.9 66.68L2 66.7L3.21 67.27Z" fill="#151618" fill-opacity="1.000000" fill-rule="nonzero"/>
</svg>
